<svg width="19" height="22" viewBox="0 0 19 22" fill="none" xmlns="http://www.w3.org/2000/svg">
<path d="M6.204 13.3L13.316 21H9.004L3.292 14.364V21H0.1V0.28H3.292V12.32L8.892 5.572H13.316L6.204 13.3ZM16.8919 21.196C16.3132 21.196 15.8279 21 15.4359 20.608C15.0439 20.216 14.8479 19.7307 14.8479 19.152C14.8479 18.5733 15.0439 18.088 15.4359 17.696C15.8279 17.304 16.3132 17.108 16.8919 17.108C17.4519 17.108 17.9279 17.304 18.3199 17.696C18.7119 18.088 18.9079 18.5733 18.9079 19.152C18.9079 19.7307 18.7119 20.216 18.3199 20.608C17.9279 21 17.4519 21.196 16.8919 21.196Z" fill="#78489D"/>
</svg>
