<svg width="119" height="25" viewBox="0 0 119 25" fill="none" xmlns="http://www.w3.org/2000/svg">
<path d="M7.376 15.2L15.504 24H10.576L4.048 16.416V24H0.4V0.32H4.048V14.08L10.448 6.368H15.504L7.376 15.2ZM27.0148 6.08C28.4014 6.08 29.6388 6.368 30.7268 6.944C31.8361 7.52 32.7001 8.37333 33.3188 9.504C33.9374 10.6347 34.2468 12 34.2468 13.6V24H30.6308V14.144C30.6308 12.5653 30.2361 11.36 29.4468 10.528C28.6574 9.67467 27.5801 9.248 26.2148 9.248C24.8494 9.248 23.7614 9.67467 22.9508 10.528C22.1614 11.36 21.7668 12.5653 21.7668 14.144V24H18.1188V6.368H21.7668V8.384C22.3641 7.65867 23.1214 7.09333 24.0388 6.688C24.9774 6.28267 25.9694 6.08 27.0148 6.08ZM62.58 6.368L57.108 24H53.268L49.716 10.976L46.164 24H42.324L36.82 6.368H40.532L44.212 20.544L47.956 6.368H51.764L55.348 20.48L58.996 6.368H62.58ZM64.0903 15.104C64.0903 13.3333 64.4529 11.7653 65.1783 10.4C65.9249 9.03467 66.9276 7.97867 68.1863 7.232C69.4663 6.464 70.8849 6.08 72.4423 6.08C73.5943 6.08 74.7249 6.336 75.8343 6.848C76.9649 7.33867 77.8609 8 78.5223 8.832V0.32H82.2023V24H78.5223V21.344C77.9249 22.1973 77.0929 22.9013 76.0263 23.456C74.9809 24.0107 73.7756 24.288 72.4103 24.288C70.8743 24.288 69.4663 23.904 68.1863 23.136C66.9276 22.3467 65.9249 21.2587 65.1783 19.872C64.4529 18.464 64.0903 16.8747 64.0903 15.104ZM78.5223 15.168C78.5223 13.952 78.2663 12.896 77.7543 12C77.2636 11.104 76.6129 10.4213 75.8023 9.952C74.9916 9.48267 74.1169 9.248 73.1783 9.248C72.2396 9.248 71.3649 9.48267 70.5543 9.952C69.7436 10.4 69.0823 11.072 68.5703 11.968C68.0796 12.8427 67.8343 13.888 67.8343 15.104C67.8343 16.32 68.0796 17.3867 68.5703 18.304C69.0823 19.2213 69.7436 19.9253 70.5543 20.416C71.3863 20.8853 72.2609 21.12 73.1783 21.12C74.1169 21.12 74.9916 20.8853 75.8023 20.416C76.6129 19.9467 77.2636 19.264 77.7543 18.368C78.2663 17.4507 78.5223 16.384 78.5223 15.168ZM90.6418 0.32V24H86.9938V0.32H90.6418ZM111.591 14.752C111.591 15.4133 111.549 16.0107 111.463 16.544H97.9913C98.0979 17.952 98.6206 19.0827 99.5593 19.936C100.498 20.7893 101.65 21.216 103.015 21.216C104.978 21.216 106.365 20.3947 107.175 18.752H111.111C110.578 20.3733 109.607 21.7067 108.199 22.752C106.813 23.776 105.085 24.288 103.015 24.288C101.33 24.288 99.8153 23.9147 98.4713 23.168C97.1486 22.4 96.1033 21.3333 95.3353 19.968C94.5886 18.5813 94.2153 16.9813 94.2153 15.168C94.2153 13.3547 94.5779 11.7653 95.3033 10.4C96.0499 9.01333 97.0846 7.94667 98.4073 7.2C99.7513 6.45333 101.287 6.08 103.015 6.08C104.679 6.08 106.162 6.44267 107.463 7.168C108.765 7.89333 109.778 8.91733 110.503 10.24C111.229 11.5413 111.591 13.0453 111.591 14.752ZM107.783 13.6C107.762 12.256 107.282 11.1787 106.343 10.368C105.405 9.55733 104.242 9.152 102.855 9.152C101.597 9.152 100.519 9.55733 99.6233 10.368C98.7273 11.1573 98.1939 12.2347 98.0233 13.6H107.783ZM116.653 24.224C115.992 24.224 115.437 24 114.989 23.552C114.541 23.104 114.317 22.5493 114.317 21.888C114.317 21.2267 114.541 20.672 114.989 20.224C115.437 19.776 115.992 19.552 116.653 19.552C117.293 19.552 117.837 19.776 118.285 20.224C118.733 20.672 118.957 21.2267 118.957 21.888C118.957 22.5493 118.733 23.104 118.285 23.552C117.837 24 117.293 24.224 116.653 24.224Z" fill="#014421"/>
</svg>
