<svg width="104" height="22" viewBox="0 0 104 22" fill="none" xmlns="http://www.w3.org/2000/svg">
<path d="M6.204 13.3L13.316 21H9.004L3.292 14.364V21H0.1V0.28H3.292V12.32L8.892 5.572H13.316L6.204 13.3ZM23.3879 5.32C24.6012 5.32 25.6839 5.572 26.6359 6.076C27.6066 6.58 28.3626 7.32667 28.9039 8.316C29.4452 9.30533 29.7159 10.5 29.7159 11.9V21H26.5519V12.376C26.5519 10.9947 26.2066 9.94 25.5159 9.212C24.8252 8.46533 23.8826 8.092 22.6879 8.092C21.4932 8.092 20.5412 8.46533 19.8319 9.212C19.1412 9.94 18.7959 10.9947 18.7959 12.376V21H15.6039V5.572H18.7959V7.336C19.3186 6.70133 19.9812 6.20667 20.7839 5.852C21.6052 5.49733 22.4732 5.32 23.3879 5.32ZM54.5075 5.572L49.7195 21H46.3595L43.2515 9.604L40.1435 21H36.7835L31.9675 5.572H35.2155L38.4355 17.976L41.7115 5.572H45.0435L48.1795 17.92L51.3715 5.572H54.5075ZM55.829 13.216C55.829 11.6667 56.1463 10.2947 56.781 9.1C57.4343 7.90533 58.3116 6.98133 59.413 6.328C60.533 5.656 61.7743 5.32 63.137 5.32C64.145 5.32 65.1343 5.544 66.105 5.992C67.0943 6.42133 67.8783 7 68.457 7.728V0.28H71.677V21H68.457V18.676C67.9343 19.4227 67.2063 20.0387 66.273 20.524C65.3583 21.0093 64.3036 21.252 63.109 21.252C61.765 21.252 60.533 20.916 59.413 20.244C58.3116 19.5533 57.4343 18.6013 56.781 17.388C56.1463 16.156 55.829 14.7653 55.829 13.216ZM68.457 13.272C68.457 12.208 68.233 11.284 67.785 10.5C67.3556 9.716 66.7863 9.11867 66.077 8.708C65.3676 8.29733 64.6023 8.092 63.781 8.092C62.9596 8.092 62.1943 8.29733 61.485 8.708C60.7756 9.1 60.197 9.688 59.749 10.472C59.3196 11.2373 59.105 12.152 59.105 13.216C59.105 14.28 59.3196 15.2133 59.749 16.016C60.197 16.8187 60.7756 17.4347 61.485 17.864C62.213 18.2747 62.9783 18.48 63.781 18.48C64.6023 18.48 65.3676 18.2747 66.077 17.864C66.7863 17.4533 67.3556 16.856 67.785 16.072C68.233 15.2693 68.457 14.336 68.457 13.272ZM79.0615 0.28V21H75.8695V0.28H79.0615ZM97.3923 12.908C97.3923 13.4867 97.355 14.0093 97.2803 14.476H85.4923C85.5857 15.708 86.043 16.6973 86.8643 17.444C87.6857 18.1907 88.6937 18.564 89.8883 18.564C91.6057 18.564 92.819 17.8453 93.5283 16.408H96.9723C96.5057 17.8267 95.6563 18.9933 94.4243 19.908C93.211 20.804 91.699 21.252 89.8883 21.252C88.4137 21.252 87.0883 20.9253 85.9123 20.272C84.755 19.6 83.8403 18.6667 83.1683 17.472C82.515 16.2587 82.1883 14.8587 82.1883 13.272C82.1883 11.6853 82.5057 10.2947 83.1403 9.1C83.7937 7.88667 84.699 6.95333 85.8563 6.3C87.0323 5.64667 88.3763 5.32 89.8883 5.32C91.3443 5.32 92.6417 5.63733 93.7803 6.272C94.919 6.90667 95.8057 7.80267 96.4403 8.96C97.075 10.0987 97.3923 11.4147 97.3923 12.908ZM94.0603 11.9C94.0417 10.724 93.6217 9.78133 92.8003 9.072C91.979 8.36267 90.9617 8.008 89.7483 8.008C88.647 8.008 87.7043 8.36267 86.9203 9.072C86.1363 9.76267 85.6697 10.7053 85.5203 11.9H94.0603ZM101.822 21.196C101.243 21.196 100.758 21 100.366 20.608C99.9736 20.216 99.7776 19.7307 99.7776 19.152C99.7776 18.5733 99.9736 18.088 100.366 17.696C100.758 17.304 101.243 17.108 101.822 17.108C102.382 17.108 102.858 17.304 103.25 17.696C103.642 18.088 103.838 18.5733 103.838 19.152C103.838 19.7307 103.642 20.216 103.25 20.608C102.858 21 102.382 21.196 101.822 21.196Z" fill="#CABDFF"/>
</svg>
