<svg width="19" height="21" viewBox="0 0 19 21" fill="none" xmlns="http://www.w3.org/2000/svg">
<path d="M6.1039 13.02L13.2159 20.72H8.9039L3.1919 14.084V20.72H-9.75728e-05V9.53674e-07H3.1919V12.04L8.7919 5.292H13.2159L6.1039 13.02ZM16.7918 20.916C16.2131 20.916 15.7278 20.72 15.3358 20.328C14.9438 19.936 14.7478 19.4507 14.7478 18.872C14.7478 18.2933 14.9438 17.808 15.3358 17.416C15.7278 17.024 16.2131 16.828 16.7918 16.828C17.3518 16.828 17.8278 17.024 18.2198 17.416C18.6118 17.808 18.8078 18.2933 18.8078 18.872C18.8078 19.4507 18.6118 19.936 18.2198 20.328C17.8278 20.72 17.3518 20.916 16.7918 20.916Z" fill="#6FB6E9"/>
</svg>
