<svg width="104" height="21" viewBox="0 0 104 21" fill="none" xmlns="http://www.w3.org/2000/svg">
<path d="M6.1039 13.02L13.2159 20.72H8.9039L3.1919 14.084V20.72H-9.75728e-05V9.53674e-07H3.1919V12.04L8.7919 5.292H13.2159L6.1039 13.02ZM23.2878 5.04C24.5011 5.04 25.5838 5.292 26.5358 5.796C27.5065 6.3 28.2625 7.04667 28.8038 8.036C29.3451 9.02533 29.6158 10.22 29.6158 11.62V20.72H26.4518V12.096C26.4518 10.7147 26.1065 9.66 25.4158 8.932C24.7251 8.18533 23.7825 7.812 22.5878 7.812C21.3931 7.812 20.4411 8.18533 19.7318 8.932C19.0411 9.66 18.6958 10.7147 18.6958 12.096V20.72H15.5038V5.292H18.6958V7.056C19.2185 6.42133 19.8811 5.92667 20.6838 5.572C21.5051 5.21733 22.3731 5.04 23.2878 5.04ZM54.4074 5.292L49.6194 20.72H46.2594L43.1514 9.324L40.0434 20.72H36.6834L31.8674 5.292H35.1154L38.3354 17.696L41.6114 5.292H44.9434L48.0794 17.64L51.2714 5.292H54.4074ZM55.7289 12.936C55.7289 11.3867 56.0462 10.0147 56.6809 8.82C57.3342 7.62533 58.2115 6.70133 59.3129 6.048C60.4329 5.376 61.6742 5.04 63.0369 5.04C64.0449 5.04 65.0342 5.264 66.0049 5.712C66.9942 6.14133 67.7782 6.72 68.3569 7.448V9.53674e-07H71.5769V20.72H68.3569V18.396C67.8342 19.1427 67.1062 19.7587 66.1729 20.244C65.2582 20.7293 64.2035 20.972 63.0089 20.972C61.6649 20.972 60.4329 20.636 59.3129 19.964C58.2115 19.2733 57.3342 18.3213 56.6809 17.108C56.0462 15.876 55.7289 14.4853 55.7289 12.936ZM68.3569 12.992C68.3569 11.928 68.1329 11.004 67.6849 10.22C67.2555 9.436 66.6862 8.83867 65.9769 8.428C65.2675 8.01733 64.5022 7.812 63.6809 7.812C62.8595 7.812 62.0942 8.01733 61.3849 8.428C60.6755 8.82 60.0969 9.408 59.6489 10.192C59.2195 10.9573 59.0049 11.872 59.0049 12.936C59.0049 14 59.2195 14.9333 59.6489 15.736C60.0969 16.5387 60.6755 17.1547 61.3849 17.584C62.1129 17.9947 62.8782 18.2 63.6809 18.2C64.5022 18.2 65.2675 17.9947 65.9769 17.584C66.6862 17.1733 67.2555 16.576 67.6849 15.792C68.1329 14.9893 68.3569 14.056 68.3569 12.992ZM78.9614 9.53674e-07V20.72H75.7694V9.53674e-07H78.9614ZM97.2922 12.628C97.2922 13.2067 97.2549 13.7293 97.1802 14.196H85.3922C85.4856 15.428 85.9429 16.4173 86.7642 17.164C87.5856 17.9107 88.5936 18.284 89.7882 18.284C91.5056 18.284 92.7189 17.5653 93.4282 16.128H96.8722C96.4056 17.5467 95.5562 18.7133 94.3242 19.628C93.1109 20.524 91.5989 20.972 89.7882 20.972C88.3136 20.972 86.9882 20.6453 85.8122 19.992C84.6549 19.32 83.7402 18.3867 83.0682 17.192C82.4149 15.9787 82.0882 14.5787 82.0882 12.992C82.0882 11.4053 82.4056 10.0147 83.0402 8.82C83.6936 7.60667 84.5989 6.67333 85.7562 6.02C86.9322 5.36667 88.2762 5.04 89.7882 5.04C91.2442 5.04 92.5416 5.35733 93.6802 5.992C94.8189 6.62667 95.7056 7.52267 96.3402 8.68C96.9749 9.81867 97.2922 11.1347 97.2922 12.628ZM93.9602 11.62C93.9416 10.444 93.5216 9.50133 92.7002 8.792C91.8789 8.08267 90.8616 7.728 89.6482 7.728C88.5469 7.728 87.6042 8.08267 86.8202 8.792C86.0362 9.48267 85.5696 10.4253 85.4202 11.62H93.9602ZM101.721 20.916C101.143 20.916 100.657 20.72 100.265 20.328C99.8735 19.936 99.6775 19.4507 99.6775 18.872C99.6775 18.2933 99.8735 17.808 100.265 17.416C100.657 17.024 101.143 16.828 101.721 16.828C102.281 16.828 102.757 17.024 103.149 17.416C103.541 17.808 103.737 18.2933 103.737 18.872C103.737 19.4507 103.541 19.936 103.149 20.328C102.757 20.72 102.281 20.916 101.721 20.916Z" fill="#6FB6E9"/>
</svg>
